<?xml version="1.0" encoding="UTF-8" standalone="no"?>
<!-- Created with Inkscape (http://www.inkscape.org/) -->

<svg
   xmlns:dc="http://purl.org/dc/elements/1.1/"
   xmlns:cc="http://creativecommons.org/ns#"
   xmlns:rdf="http://www.w3.org/1999/02/22-rdf-syntax-ns#"
   xmlns:svg="http://www.w3.org/2000/svg"
   xmlns="http://www.w3.org/2000/svg"
   xmlns:sodipodi="http://sodipodi.sourceforge.net/DTD/sodipodi-0.dtd"
   xmlns:inkscape="http://www.inkscape.org/namespaces/inkscape"
   width="210mm"
   height="297mm"
   viewBox="0 0 744.09448819 1052.3622047"
   id="svg2"
   version="1.1"
   inkscape:version="0.91 r13725"
   sodipodi:docname="icons.svg">
  <defs
     id="defs4" />
  <sodipodi:namedview
     id="base"
     pagecolor="#ffffff"
     bordercolor="#666666"
     borderopacity="1.0"
     inkscape:pageopacity="0.0"
     inkscape:pageshadow="2"
     inkscape:zoom="0.7"
     inkscape:cx="1358.0385"
     inkscape:cy="711.50615"
     inkscape:document-units="px"
     inkscape:current-layer="layer1"
     showgrid="false"
     inkscape:window-width="1536"
     inkscape:window-height="801"
     inkscape:window-x="-8"
     inkscape:window-y="-8"
     inkscape:window-maximized="1" />
  <metadata
     id="metadata7">
    <rdf:RDF>
      <cc:Work
         rdf:about="">
        <dc:format>image/svg+xml</dc:format>
        <dc:type
           rdf:resource="http://purl.org/dc/dcmitype/StillImage" />
        <dc:title></dc:title>
      </cc:Work>
    </rdf:RDF>
  </metadata>
  <g
     inkscape:label="Layer 1"
     inkscape:groupmode="layer"
     id="layer1">
    <path
       style="opacity:1;fill:#000000;fill-opacity:1;fill-rule:evenodd;stroke:#ffffff;stroke-width:3;stroke-linecap:round;stroke-linejoin:round;stroke-miterlimit:4;stroke-dasharray:none;stroke-dashoffset:0;stroke-opacity:1"
       d="M 520.14961,147.19309 A 250.00012,250.00012 0 0 0 270.149,397.19246 250.00012,250.00012 0 0 0 520.14961,647.19307 250.00012,250.00012 0 0 0 770.14901,397.19246 250.00012,250.00012 0 0 0 520.14961,147.19309 Z m -33.82686,99.09662 168.01096,0 -12.0744,9.84228 c -5.1699,9.70157 -4.3392,22.42144 2.6658,34.62441 0,0 1.4927,62.94769 2.2394,94.42172 -0.5502,13.56404 -6.4424,15.30391 -11.648,15.681 -6.4194,-0.0548 -11.6954,-2.77107 -12.5448,-14.33587 l 1.4505,-95.60882 c 4.0237,-8.38292 8.4466,-14.84926 4.9848,-24.30556 l -47.3027,38.55813 c 5.5342,9.46507 8.7969,20.21133 9.0619,31.45879 0.4326,18.35884 -12.4798,37.1893 -31.7405,48.75201 -6.0242,5.85155 -9.0091,13.09337 -7.8602,21.10321 2.2149,15.44135 30.3859,28.65028 38.334,37.69935 11.5288,13.12575 14.1504,30.54737 13.8226,44.32825 0.035,1.47414 -0.028,2.96194 -0.2009,4.46051 -3.8017,33.04481 -40.9383,54.80686 -86.1697,55.12365 -47.76466,0.33452 -86.16212,-21.44773 -85.85471,-52.59019 0.31675,-32.09438 37.77135,-58.48623 86.17081,-59.11984 3.8264,-0.0501 7.6127,0.0752 11.3405,0.35894 -9.5096,-14.81224 -11.5312,-28.12987 -6.9424,-40.12746 -0.5671,0.0213 -1.1357,0.037 -1.7054,0.0454 -43.01519,0.63362 -68.27071,-24.88752 -69.53792,-59.71769 -0.0458,-1.25026 -0.0471,-2.4952 -0.0125,-3.73404 l -64.84588,0 100.35847,-86.91811 z m 25.84056,37.30855 c -3.4003,0.0104 -6.7573,0.57617 -9.9942,1.75431 -20.71619,7.54008 -28.88255,37.92729 -17.18295,65.08354 11.68145,27.11398 34.75905,43.62792 55.15065,36.43506 20.4492,-7.2132 28.6389,-35.95359 18.5256,-63.73962 -8.5331,-23.44447 -28.1373,-39.58955 -46.4991,-39.53329 z m 9.9391,160.8994 c -33.41854,1e-5 -60.82593,18.38121 -60.50911,45.30219 0.29442,25.01841 24.55614,45.3034 60.50911,45.30341 33.4186,10e-6 59.8767,-11.41273 60.5103,-45.30341 0.4677,-25.0158 -27.0917,-45.3022 -60.5103,-45.30219 z"
       id="path4226"
       inkscape:connector-curvature="0"
       inkscape:export-xdpi="50"
       inkscape:export-ydpi="50" />
    <path
       style="opacity:1;fill:#000000;fill-opacity:1;fill-rule:evenodd;stroke:#ffffff;stroke-width:3;stroke-linecap:round;stroke-linejoin:round;stroke-miterlimit:4;stroke-dasharray:none;stroke-dashoffset:0;stroke-opacity:1"
       d="M -150 298.07617 A 250 250 0 0 0 -400 548.07617 A 250 250 0 0 0 -150 798.07617 A 250 250 0 0 0 100 548.07617 A 250 250 0 0 0 -150 298.07617 z M -258.10156 405.6875 A 34.597725 34.597725 0 0 1 -223.50391 440.28516 A 34.597725 34.597725 0 0 1 -258.10156 474.88281 A 34.597725 34.597725 0 0 1 -292.69922 440.28516 A 34.597725 34.597725 0 0 1 -258.10156 405.6875 z M -73.931641 495.60156 L -73.931641 495.60352 C -28.808781 496.46454 -8.7875681 526.51432 -7.3613281 580.35938 L -7.3007812 580.35938 L -7.3007812 690.4668 L -66.929688 690.4668 L -66.929688 582.48438 C -68.110278 563.29147 -74.827844 548.89592 -96.115234 547.12891 C -113.27376 546.21492 -126.4346 555.79549 -135.08594 577.21289 L -135.08594 690.4668 L -192.18945 690.4668 L -192.18945 500.05273 L -135.08594 500.05273 L -135.08594 525.16797 C -121.3189 506.2766 -102.80023 496.1591 -78.4375 495.61133 C -76.9089 495.57683 -75.406431 495.57346 -73.931641 495.60156 z M -288.1543 500.05078 L -228.04883 500.05078 L -228.04883 690.46484 L -288.1543 690.46484 L -288.1543 500.05078 z "
       id="circle4178"
       inkscape:export-xdpi="50"
       inkscape:export-ydpi="50" />
    <path
       style="opacity:1;fill:#000000;fill-opacity:1;fill-rule:evenodd;stroke:#ffffff;stroke-width:3;stroke-linecap:round;stroke-linejoin:round;stroke-miterlimit:4;stroke-dasharray:none;stroke-dashoffset:0;stroke-opacity:1"
       d="m -176.2851,-271.92278 a 250,250 0 0 0 -250,249.999998 250,250 0 0 0 250,250.000002 A 250,250 0 0 0 73.714896,-21.922782 250,250 0 0 0 -176.2851,-271.92278 Z m -79.03906,136.85742 c 21.3623,0 39.36718,2.69449 54.01562,8.08593 l 0,47.455078 c -14.64844,-8.74837 -31.33138,-13.12304 -50.04883,-13.12304 -20.5485,0 -37.1302,6.4598 -49.74414,19.3789 -12.61393,12.91911 -18.91992,30.41586 -18.91992,52.49024 0,21.15884995 5.94971,38.04622 17.85156,50.66015 11.90186,12.51221 27.92481,18.76758 48.06641,18.76758 19.22607,0 36.82406,-4.67839 52.79492,-14.03711 l 0,45.01172 c -15.97086,7.73111 -36.82405,11.59766 -62.56055,11.59766 -33.56933,0 -59.96728,-9.86687 -79.19335,-29.60157 -19.22608,-19.7347 -28.83985,-46.03141 -28.83985,-78.88867 0,-34.99348 10.78386,-63.37532 32.34961,-85.144528 21.66748,-21.76921 49.74365,-32.65234 84.22852,-32.65234 z m 68.96875,3.66211 53.10156,0 45.623046,152.281248 c 2.4414,8.23974 3.91715,15.51334 4.42578,21.82031 l 0.91406,0 c 0.71208,-6.81559 2.28906,-14.29167 4.73047,-22.42969 l 45.31836,-151.671868 51.57617,0 -75.37891,218.810538 -55.847646,0 -74.46289,-218.810538 z"
       id="path4188"
       inkscape:export-xdpi="50"
       inkscape:export-ydpi="50"
       inkscape:connector-curvature="0" />
    <path
       style="opacity:1;fill:#000000;fill-opacity:1;fill-rule:evenodd;stroke:#ffffff;stroke-width:3;stroke-linecap:round;stroke-linejoin:round;stroke-miterlimit:4;stroke-dasharray:none;stroke-dashoffset:0;stroke-opacity:1"
       d="m 417.68593,-514.35866 a 250,250 0 0 0 -250,250 250,250 0 0 0 250,249.999998 250,250 0 0 0 250,-249.999998 250,250 0 0 0 -250,-250 z m -150,151.42774 300,0 -150,117.48437 -150,-117.48437 z m 300,21.42968 0,175.71289 -300,0 0,-174.17187 150,115.94141 150,-117.48243 z"
       id="path4259"
       inkscape:export-xdpi="50"
       inkscape:export-ydpi="50"
       inkscape:connector-curvature="0" />
    <path
       style="opacity:1;fill:#000000;fill-opacity:1;fill-rule:evenodd;stroke:#ffffff;stroke-width:3;stroke-linecap:round;stroke-linejoin:round;stroke-miterlimit:4;stroke-dasharray:none;stroke-dashoffset:0;stroke-opacity:1"
       d="m 1547.0352,107.89453 c -138.0712,0 -250,111.92881 -250,250 0,138.07119 111.9288,250 250,250 138.0712,0 250,-111.92881 250,-250 0,-138.07119 -111.9288,-250 -250,-250 z m -90.3946,109.74267 205.9084,0 0,264.99952 -18.51,0 0,-250.53152 -187.3984,0 z m -26.2656,25.20264 8.7559,0 17.5097,0 174.6446,0 0,239.79688 0,13.46875 0,6.73437 -200.9102,0 z m 35.4551,35.80664 c -2.2092,0 -4,2.23857 -4,5 0,2.76142 1.7908,5 4,5 l 130,0 c 2.2091,0 4,-2.23858 4,-5 0,-2.76143 -1.7909,-5 -4,-5 z m 0,28.04883 c -2.2091,0 -4,2.23857 -4,5 0,2.76142 1.7909,5 4,5 l 73,0 c 2.2091,0 4,-2.23858 4,-5 0,-2.76143 -1.7909,-5 -4,-5 z m 0,28.05078 c -2.2091,0 -4,2.23857 -4,5 0,2.76142 1.7909,5 4,5 l 73,0 c 2.2091,0 4,-2.23858 4,-5 0,-2.76143 -1.7909,-5 -4,-5 z"
       id="path4282"
       inkscape:connector-curvature="0"
       sodipodi:nodetypes="sssssccccccccccccccccsssssssssssssssssssss"
       inkscape:export-xdpi="50"
       inkscape:export-ydpi="50" />
  </g>
</svg>
